<?xml version="1.0" encoding="utf-8"?>
<!-- Generator: Adobe Illustrator 27.8.1, SVG Export Plug-In . SVG Version: 6.00 Build 0)  -->
<svg version="1.1" id="Layer_1" xmlns="http://www.w3.org/2000/svg" xmlns:xlink="http://www.w3.org/1999/xlink" x="0px" y="0px"
	 viewBox="0 0 283.46 283.46" style="enable-background:new 0 0 283.46 283.46;" xml:space="preserve">
<style type="text/css">
	.st0{fill:none;stroke:#3B3B39;stroke-width:5.6693;stroke-miterlimit:10;}
	.st1{fill:#3B3B39;}
</style>
<path class="st0" d="M123.16,125.91"/>
<g>
	<g>
		<path class="st1" d="M2237.68-407.7h-77.27l0-50.39c0-21.42,17.34-38.85,38.64-38.85l1.03,0c20.73,0.08,37.59,17.04,37.59,37.81
			V-407.7z M2164.24-411.53h69.61v-47.6c0-18.67-15.15-33.91-33.77-33.98l-1.02,0c-19.19,0-34.81,15.71-34.81,35.02L2164.24-411.53z
			"/>
	</g>
	<g>
		<path class="st1" d="M2199.04-498.02c-14.15,0-25.66-11.51-25.66-25.65c0-14.15,11.51-25.66,25.66-25.66
			c14.15,0,25.65,11.51,25.65,25.66C2224.7-509.53,2213.19-498.02,2199.04-498.02z M2199.04-545.5c-12.03,0-21.83,9.79-21.83,21.83
			c0,12.03,9.79,21.82,21.83,21.82c12.03,0,21.82-9.79,21.82-21.82C2220.87-535.71,2211.08-545.5,2199.04-545.5z"/>
	</g>
</g>
<g>
	<path class="st1" d="M2199.06-419.61h-0.03c-0.51,0-1-0.19-1.39-0.53c-0.74-0.66-18.22-16.3-25.49-28.53
		c-5.77-9.71-4.21-18.5,4.28-24.11c5.55-3.67,12.64-3.52,17.65,0.37c2.34,1.82,3.91,4.1,4.96,6.31c1.06-2.21,2.63-4.49,4.96-6.31
		c5.01-3.89,12.1-4.04,17.65-0.37c8.49,5.61,10.05,14.4,4.28,24.11c-7.27,12.23-24.75,27.87-25.49,28.53
		C2200.06-419.8,2199.57-419.61,2199.06-419.61z M2199.06-421.85L2199.06-421.85L2199.06-421.85z M2185.14-470.96
		c-2.19,0-4.44,0.65-6.42,1.96c-6.48,4.28-7.47,10.33-2.93,17.96c5.77,9.72,18.96,22.27,23.25,26.23
		c4.29-3.96,17.48-16.51,23.26-26.23c4.53-7.64,3.55-13.68-2.93-17.96c-4.06-2.69-9.21-2.61-12.8,0.18
		c-4.43,3.45-5.25,9.5-5.36,10.67c0,0.02,0,0.04,0,0.07c0,1.24-0.94,2.24-2.14,2.24c-0.01,0-0.01,0-0.01,0c-1.18,0-2.16-1-2.16-2.24
		c0-0.02,0-0.05,0-0.07c-0.12-1.17-0.93-7.22-5.36-10.67C2189.68-470.25,2187.44-470.96,2185.14-470.96z"/>
</g>
<g>
	<path class="st1" d="M186.06,185.98c-0.01,0-0.03,0-0.04,0c-1.59-0.01-2.86-0.53-3.77-1.09l-2.8,0.94
		c-0.38,0.13-0.79,0.18-1.19,0.13c-0.12-0.01-3.01-0.31-6.54-0.99c-3.93-0.75-10.6-3.41-10.72-8.55c-0.01-0.63-0.3-2-2.08-4.14
		c-0.1-0.12-0.18-0.22-0.23-0.3h0l-0.12-0.16c-0.57-0.73-2.31-2.96-3.55-5.38c-0.11-0.22-0.21-0.44-0.3-0.65
		c-4,1.56-8.56-1.75-9.46-2.45l-6.61-4.83c-0.79-0.35-4.53-1.84-8.55-0.54c-5.05,1.63-9.15,1.3-10.77,1.06l-3.98,0.99
		c-8.88,8.44-21.92,9.5-27.19,9.55c-3.14,0-5.54-0.77-7.12-2.38c-1.33-1.36-1.64-2.88-1.7-3.66l-0.35-1.64
		c-0.02-0.08-0.03-0.15-0.04-0.23l-1.13-8.69l-1.42-8.8c-1.87-2.92-9.66-16.26-2.08-24.28c6.47-6.84,13.02-9.12,18.81-11.13
		c0.82-0.29,1.64-0.57,2.43-0.86c3.37-1.23,5.31-3.58,6.2-4.93c-0.44-1.38-0.32-2.61-0.28-2.92c0.01-0.05,0.02-0.1,0.02-0.16
		c0.07-0.38,0.84-3.69,5.96-2.96c2.55-5.11,4.48-7.24,4.7-7.47c0.07-0.07,0.14-0.14,0.21-0.21c2.59-2.24,8.61-5.3,12.86-0.8
		c0.56,0.59,1.01,0.85,1.28,0.92c0.3-2.04,1.24-3.83,1.47-4.25c0.02-0.03,0.04-0.07,0.06-0.1c4.16-6.85,16.55-5.6,18.23-5.39
		l7.7,0.66c0.94,0.08,1.78,0.62,2.24,1.45s0.48,1.82,0.04,2.67l-1.53,2.98c-0.04,0.08-0.08,0.15-0.13,0.22
		c-1.5,2.37-1.57,4.2-1.45,5.17l0.05,0.02c0.23,0.12,0.44,0.27,0.62,0.45l0.92,0.87c1.08,0.49,2.29,1.01,2.76,1.17
		c0.95,0.13,1.71,0.67,2.25,1.22l5.92,1.94c1.94-3.39,1.62-6.84,1.62-6.88c-0.01-0.1-0.02-0.22-0.02-0.33
		c0.06-9.25,1.14-12.13,2.42-13.27l1.17-1.28c0.6-0.66,1.48-1,2.37-0.92c0.89,0.08,1.69,0.58,2.15,1.34l1.46,2.39
		c0.04,0.06,0.07,0.12,0.1,0.18l9.92,19.31c0.45,0.8,7.1,12.32,13.32,16.66c6.79,4.74,9.27,10.46,9.84,11.98
		c0.74,1.31,2.44,5.32,2.38,14.43c-0.08,11.59-5.74,18.63-8.17,21.12c-1.87,1.92-2.25,5.09-2.26,5.12
		c-0.62,7.04-2.16,11.22-2.22,11.39c-0.29,0.77-0.89,1.37-1.66,1.66c-0.77,0.29-1.62,0.23-2.34-0.16c-0.5-0.27-1.61,0.3-2.18,0.75
		C191.19,184.63,188.66,185.98,186.06,185.98z M184.91,179.85c0.11,0.11,0.54,0.47,1.19,0.46c0.92-0.02,2.12-0.82,3.37-2.25
		c0.08-0.09,0.16-0.17,0.25-0.25c1.1-0.97,3.12-2.18,5.37-2.3c0.42-1.7,0.95-4.32,1.24-7.69c0.05-0.55,0.59-5.22,3.84-8.56
		c1.95-2,6.49-7.67,6.55-17.2c0.06-8.38-1.54-11.4-1.66-11.62c-0.15-0.23-0.26-0.45-0.34-0.72c-0.01-0.03-1.74-5.16-7.8-9.39
		c-7.47-5.22-14.73-18.03-15.04-18.57c-0.02-0.03-0.03-0.06-0.05-0.09l-8.6-16.73c-0.15,1.42-0.28,3.42-0.3,6.24
		c0.1,1.22,0.32,7.25-3.96,12.46c-0.74,0.9-1.97,1.26-3.07,0.89l-8.69-2.85c-0.53-0.17-0.99-0.49-1.33-0.92
		c-0.7-0.22-1.85-0.68-3.95-1.65c-0.28-0.13-0.54-0.3-0.76-0.52l-0.98-0.93l-0.79-0.42c-0.54-0.28-0.96-0.73-1.23-1.28
		c-0.23-0.48-2.08-4.68,1.03-10.37l-3.49-0.3c-0.04,0-0.08-0.01-0.11-0.01c-3.35-0.41-10.83-0.3-12.71,2.65
		c-0.4,0.75-0.9,2.11-0.83,2.81c0.08,0.76-0.15,1.51-0.64,2.09c-0.18,0.22-1.87,2.16-4.62,2.25c-1.4,0.05-3.52-0.39-5.72-2.7
		c-1.4-1.48-4.27,0.6-4.92,1.09c-0.38,0.46-1.85,2.34-3.76,6.19c-0.18,0.71-0.58,1.38-1.14,1.89c-0.88,0.8-2.07,1.18-3.55,1.13
		c0.08,0.51,0.01,1.04-0.2,1.53c-0.11,0.26-2.82,6.39-10.05,9.03c-0.82,0.3-1.66,0.59-2.52,0.89c-5.43,1.89-11.04,3.83-16.55,9.67
		c-5.15,5.45,2.91,17.61,3,17.73c0.24,0.34,0.39,0.74,0.46,1.15l1.52,9.48l1.12,8.66l0.37,1.74c0.04,0.17,0.06,0.34,0.06,0.51
		c0.09,0.29,0.91,0.83,3.1,0.83c4.69-0.05,16.4-0.98,23.81-8.44c0.36-0.37,0.82-0.63,1.33-0.75l5.3-1.33
		c0.44-0.11,0.89-0.11,1.33-0.01c0.02,0,3.63,0.76,8.5-0.8c6.81-2.2,12.8,0.85,13.05,0.98c0.13,0.07,0.25,0.14,0.37,0.23l6.9,5.04
		c1.53,1.18,3.52,1.93,4,1.69c0.04-0.02,0.07-0.04,0.1-0.05c0.21-0.1,0.51-0.33,0.63-0.46c0.17-0.49,0.47-0.93,0.87-1.26l1.19-1
		c1-0.83,2.43-0.88,3.48-0.12s1.45,2.14,0.97,3.35v0c0,0-0.54,1.54,0.16,2.89c1,1.95,2.49,3.85,2.98,4.48
		c0.08,0.1,0.15,0.19,0.2,0.26c2.25,2.71,3.38,5.27,3.44,7.7c0.13,0.7,2.74,2.46,6.12,3.11c2.38,0.46,4.48,0.73,5.46,0.85l3.65-1.22
		C183.03,178.65,184.18,178.9,184.91,179.85z M84.98,163.25c0,0.01,0,0.01,0,0.02C84.98,163.26,84.98,163.25,84.98,163.25z
		 M84.98,163.24C84.98,163.24,84.98,163.24,84.98,163.24C84.98,163.24,84.98,163.24,84.98,163.24z M106.89,98.91
		C106.89,98.91,106.89,98.92,106.89,98.91C106.89,98.92,106.89,98.91,106.89,98.91z M106.89,98.91
		C106.89,98.91,106.89,98.91,106.89,98.91C106.89,98.91,106.89,98.91,106.89,98.91z M108.11,97.01L108.11,97.01L108.11,97.01z"/>
</g>
<g>
	<path class="st1" d="M186.96,207.67c-0.13,0-0.26-0.01-0.4-0.02c-3.27-0.27-5.05-4.04-5.52-5.18c-0.03-0.06-0.05-0.13-0.07-0.2
		c-1.76-5.4-2.67-8.2-2.7-8.31c0,0,0-0.01,0-0.01c-0.36-1.2,0-2.43,0.93-3.2c0.61-0.5,1.94-1.19,4.02-0.13l2.66,1.29
		c1.02,0.01,2.92,0.04,3.11,0.04c0,0,0,0,0,0c0.2,0,0.44,0,2.15,0.29c1.81,0.26,3.99,1.89,4.34,4.85c0.34,2.96-2.07,5.62-3.36,6.81
		C191.44,205.18,189.74,207.67,186.96,207.67z M186.32,200.4c0.16,0.37,0.4,0.79,0.62,1.12c0.12-0.19,0.23-0.38,0.29-0.52
		c0.17-0.4,0.44-0.75,0.77-1.03c0.77-0.66,1.6-1.68,1.8-2.21c-0.32-0.05-0.73-0.12-0.96-0.15c-0.58-0.01-2.73-0.04-3.45-0.04
		C185.83,198.89,186.21,200.04,186.32,200.4z M190.15,197.82c0.04,0.01,0.09,0.02,0.13,0.02
		C190.26,197.83,190.22,197.83,190.15,197.82z M189.85,197.62L189.85,197.62L189.85,197.62z"/>
</g>
</svg>
