<?xml version="1.0" encoding="utf-8"?>
<!-- Generator: Adobe Illustrator 27.8.1, SVG Export Plug-In . SVG Version: 6.00 Build 0)  -->
<svg version="1.1" id="Layer_1" xmlns="http://www.w3.org/2000/svg" xmlns:xlink="http://www.w3.org/1999/xlink" x="0px" y="0px"
	 viewBox="0 0 283.46 283.46" style="enable-background:new 0 0 283.46 283.46;" xml:space="preserve">
<style type="text/css">
	.st0{fill:#3B3B39;}
</style>
<g>
	<path class="st0" d="M143.73,213.99c-0.59,0-1.19-0.17-1.71-0.53l-63.65-43.3c-0.67-0.46-1.14-1.18-1.28-1.98
		c-0.14-0.8,0.05-1.64,0.53-2.3l61.8-86.69c0.95-1.34,2.83-1.68,4.19-0.75l63.65,43.3c0.67,0.46,1.14,1.18,1.28,1.98
		c0.14,0.8-0.04,1.63-0.51,2.29l-61.81,86.7C145.63,213.54,144.68,213.99,143.73,213.99z M145.21,208.77L145.21,208.77
		C145.21,208.78,145.21,208.77,145.21,208.77z M83.79,166.99l59.3,40.35l58.76-82.42l-59.3-40.35L83.79,166.99z M82.24,169.16
		l-0.01,0.02C82.24,169.17,82.24,169.17,82.24,169.16z M144.05,82.47l-0.01,0.01C144.04,82.48,144.04,82.48,144.05,82.47z"/>
</g>
<g>
	<path class="st0" d="M165.48,120.52c-1.26,0-2.54-0.36-3.65-1.12c-1.44-0.98-2.39-2.45-2.7-4.14c-0.3-1.68,0.08-3.38,1.08-4.78
		c2.03-2.85,6.05-3.56,8.95-1.58c1.43,0.98,2.39,2.45,2.7,4.14c0.3,1.68-0.08,3.38-1.08,4.78l0,0
		C169.53,119.58,167.52,120.52,165.48,120.52z M165.5,113.44c-0.26,0-0.51,0.12-0.67,0.33c-0.13,0.19-0.14,0.37-0.12,0.49
		c0.02,0.13,0.09,0.31,0.3,0.45c0.37,0.25,0.9,0.17,1.15-0.18c0.13-0.19,0.13-0.37,0.11-0.49c-0.02-0.13-0.09-0.31-0.3-0.45
		C165.83,113.49,165.66,113.44,165.5,113.44z"/>
</g>
<g>
	<path class="st0" d="M171.15,117.24c-3.37,0-5.65-0.24-5.96-0.27c-1.56-0.17-2.68-1.57-2.51-3.13c0.17-1.56,1.56-2.67,3.13-2.51
		l0,0c0.23,0.02,23.56,2.41,32.29-9.15c4.57-6.06,4.42-15.21-0.45-27.21c-0.59-1.45,0.11-3.1,1.56-3.69
		c1.45-0.59,3.1,0.11,3.69,1.56c5.68,13.98,5.58,25.01-0.29,32.77C194.97,115.73,179.64,117.24,171.15,117.24z"/>
</g>
</svg>
